Coordinates
version=1
nRows=32
nColumns=12
inDegrees=yes

Units are S.I. units (second, meters, Newtons, ...)
Angles are in degrees

endheader
time	SC_y	SC_z	SC_x	AC_y	AC_z	AC_x	GH_y	GH_z	GH_yy	EL_x	PS_y
       0.0              -58.01          3.819          40.25          50.28         -11.32         -6.177          54.26          37.82         -158.4          10.93          34.38
  0.005293              -58.01          3.818          40.25          50.28         -11.32         -6.175          54.24          37.82         -158.4          10.94           34.4
   0.01059               -58.0          3.817          40.25          50.28         -11.32         -6.174          54.22          37.82         -158.3          10.95          34.41
   0.01588               -58.0          3.816          40.26          50.28         -11.32         -6.172           54.2          37.82         -158.3          10.95          34.43
   0.02117               -58.0          3.814          40.26          50.29         -11.31         -6.171          54.18          37.81         -158.2          10.96          34.45
   0.02646               -58.0          3.813          40.27          50.29         -11.31         -6.169          54.15          37.81         -158.2          10.97          34.48
   0.03176               -58.0          3.812          40.27          50.29         -11.31         -6.167          54.13          37.81         -158.1          10.98           34.5
   0.03705              -57.99           3.81          40.27          50.29          -11.3         -6.165           54.1          37.81         -158.1          10.99          34.52
   0.04234              -57.99          3.808          40.28          50.29          -11.3         -6.163          54.07           37.8         -158.0           11.0          34.55
   0.04763              -57.99          3.807          40.28          50.29         -11.29         -6.161          54.04           37.8         -157.9          11.01          34.58
   0.05293              -57.99          3.805          40.29           50.3         -11.29         -6.158          54.01           37.8         -157.9          11.03          34.61
   0.05822              -57.98          3.803           40.3           50.3         -11.29         -6.156          53.97          37.79         -157.8          11.04          34.64
   0.06351              -57.98            3.8           40.3           50.3         -11.28         -6.153          53.93          37.79         -157.7          11.06          34.67
    0.0688              -57.98          3.798          40.31           50.3         -11.27          -6.15          53.89          37.79         -157.6          11.07          34.71
    0.0741              -57.97          3.795          40.32          50.31         -11.27         -6.146          53.85          37.78         -157.5          11.09          34.75
   0.07939              -57.97          3.792          40.33          50.31         -11.26         -6.143           53.8          37.78         -157.4          11.11           34.8
   0.08468              -57.96          3.789          40.34          50.31         -11.25         -6.139          53.75          37.77         -157.3          11.13          34.85
   0.08998              -57.96          3.786          40.35          50.32         -11.25         -6.135          53.69          37.77         -157.2          11.15           34.9
   0.09527              -57.95          3.782          40.36          50.32         -11.24          -6.13          53.63          37.76         -157.0          11.17          34.96
    0.1006              -57.95          3.778          40.37          50.32         -11.23         -6.125          53.56          37.75         -156.9           11.2          35.02
    0.1059              -57.94          3.774          40.38          50.33         -11.22         -6.119          53.48          37.75         -156.7          11.23          35.09
    0.1111              -57.93          3.769           40.4          50.33         -11.21         -6.113           53.4          37.74         -156.5          11.26          35.16
    0.1164              -57.93          3.763          40.41          50.34         -11.19         -6.106          53.31          37.73         -156.3           11.3          35.25
    0.1217              -57.92          3.757          40.43          50.34         -11.18         -6.099           53.2          37.72         -156.1          11.34          35.34
     0.127              -57.91          3.751          40.45          50.35         -11.16          -6.09          53.09          37.71         -155.8          11.38          35.44
    0.1323               -57.9          3.743          40.47          50.36         -11.15         -6.081          52.96          37.69         -155.6          11.43          35.56
    0.1376              -57.89          3.735           40.5          50.37         -11.13          -6.07          52.82          37.68         -155.3          11.48          35.69
    0.1429              -57.87          3.726          40.52          50.38         -11.11         -6.058          52.66          37.67         -154.9          11.54          35.83
    0.1482              -57.86          3.715          40.55          50.39         -11.08         -6.045          52.48          37.65         -154.5          11.61           36.0
    0.1535              -57.84          3.703          40.59           50.4         -11.05          -6.03          52.28          37.63         -154.1          11.69          36.18
    0.1588              -57.82          3.689          40.63          50.41         -11.02         -6.012          52.05          37.61         -153.5          11.78           36.4
    0.1641               -57.8          3.674          40.68          50.43         -10.99         -5.993          51.78          37.58         -152.9          11.88          36.64
